# xmcd
#
# Track frame offsets:
#	150
#	18788
#	37905
#	51268
#	63447
#	77495
#	89711
#	107044
#	127267
#	149220
#	161322
#	175958
#
# Disc length: 2608 seconds
#
# Revision: 0
# Processed by: cddbd v1.5.2PL0 Copyright (c) Steve Scherf et al.
# Submitted via: AudioConverter v7.0 Copyright (c) D.R. Software
#
DISCID=a30a2e0c
DTITLE=BAREFOOT MAN - DIRTY FOOT
DYEAR=2015
DGENRE=Comedy
TTITLE0=TIGER IN THE WOODS
TTITLE1=IF U SEE KAY
TTITLE2=JEFF THE MUFF DIVER
TTITLE3=TATTOO SONG
TTITLE4=SHE LOVES MY DECK
TTITLE5=PUSSY CAT SONG
TTITLE6=SHAVIN CREME
TTITLE7=KISS MY GLASS
TTITLE8=PIERCE THE CAT
TTITLE9=MY WIFE WONT COME WITH NO MORE
TTITLE10=WET SPOT
TTITLE11=ALICE
EXTD=
EXTT0=TIGER IN THE WOODS
EXTT1=IF U SEE KAY
EXTT2=JEFF THE MUFF DIVER
EXTT3=TATTOO SONG
EXTT4=SHE LOVES MY DECK
EXTT5=PUSSY CAT SONG
EXTT6=SHAVIN CREME
EXTT7=KISS MY GLASS
EXTT8=PIERCE THE CAT
EXTT9=MY WIFE WONT COME WITH NO MORE
EXTT10=WET SPOT
EXTT11=ALICE
PLAYORDER=
